<svg data-name="Layer 1" viewBox="0 0 161.77 174.517" xmlns="http://www.w3.org/2000/svg" xmlns:xlink="http://www.w3.org/1999/xlink" style="fill: rgb(0, 0, 0);" original_string_length="4072"><path d="M161.586,174.092c-11.847-1.618-23.92-2.79-36.113-3.541a25.2,25.2,0,0,0-5.6-7.96,61.007,61.007,0,0,0-11.4-8.46,18.4,18.4,0,0,1,11.239,4c6.076-21.157,24.808-33.4,19.112-61.709,3.243-17.7-4.137-28.433-8.445-37.9a12.848,12.848,0,0,1,4.888,5.447c1.593-6.445,4.014-12.465-.929-20.531,5.646,4.711,5.979,10.075,4.289,18.109,6.6-3.166,9.573-7.273,11.168-11.737,1.006-2.818,1.161-6.744,2.36-10.148,1.535-4.363,3.259-7.347,2.521-9.449a33.092,33.092,0,0,0-2.727-5.06A43.268,43.268,0,0,0,131.7,9.022c-10.018-4.054-19.077-3.945-27.642-8.4a4.084,4.084,0,0,0-1.522-.455C99.625-.138,96.328-.1,93.864.9c-3.381,1.365-5.632,3.444-9.878,4.252a4.1,4.1,0,0,0-2.078,1.038,8.893,8.893,0,0,0-1.3,1.484,4.156,4.156,0,0,0-.431,4.084c1.116,2.666,1.185,5.744,2,7.747a2.12,2.12,0,0,0,2.42,1.278,17.144,17.144,0,0,1,5.734-.383,4.172,4.172,0,0,0,3.942-1.706c1.461-1.987,2.607-4.368,5.034-5.4a12.793,12.793,0,0,0,2.182-9.732c2.283,3.121,1.862,6.768.651,10.408,8.31,1.577,11.337,11.287,20.537,16.616,6.393-6.441,16.08-.792,24.877-2.57-7.584,5.534-18.465-2.8-26.511,7.844,2.584-.58,5.094.167,7.47,1.127-13.378.04-25.213,6.723-30.1,20.448a9.993,9.993,0,0,0,4.468-1.076A7.531,7.531,0,0,1,99.4,59.259c-2.187,1.008-3.25,1.154-5.461.131a19.97,19.97,0,0,1-6.125-5.04c-2.442-2.75-3.557-3.469-3.767-7.233-.133-2.358-.008-4.964-1.333-8.325-2.6-6.593-9.447-11.749-16.651-11.649-8.24.116-17.246,7.379-20.6,14.616A12.122,12.122,0,0,0,44.441,49.1c.29,1.718,1.1,2.958,1.281,4.5a6.855,6.855,0,0,0,.555,2.689,3.639,3.639,0,0,0,1.89,1.274c.981.395,1.117.783.8,1.751a9.516,9.516,0,0,0-.548,3.775c.018,1.6-.017,3.09-.1,4.688-.017.357.289.625.67.819a2.225,2.225,0,0,0,2.141.089c.416-.171.711-.354,1.012-.485.532-.232.944-.269,1.24.112a1.929,1.929,0,0,1,.31,1.317,1.669,1.669,0,0,0,.213,1.118,2.69,2.69,0,0,0,1.4.7,1.051,1.051,0,0,1,.814.971,1.771,1.771,0,0,0,.107.506c.284.725.97.645,1.566,1.119a2.889,2.889,0,0,1,.961,1.551c.295,1.1,0,1.431,1.157,2.259a4.912,4.912,0,0,0,1.914.788c2.807.548,5.113-2.233,6.759-4.181,3.323-3.937,5.787-9.38,5.787-14.475,2.5,4.7-1.461,12.295-4.77,16.711a4.639,4.639,0,0,1,3.006,2.445c3.2-2.243,4.324-7.742,8.548-7.588-5.175,2.724-5.715,10.9-13.059,12.046a8.46,8.46,0,0,1,3.952,5.856,20.03,20.03,0,0,0-6.308-4.972c-10.913-5.537-21.949,1.673-27.471,11.365a18.941,18.941,0,0,0-10.479,3.7c1.135,5.013,1.321,12.725-5.483,17.905C31.417,99.53,19,89.57,14.756,77.515c-1.063-3.012-1.886-6.835-.414-9.857a6.845,6.845,0,0,1-3.632-4.531c5.779,4.823,12.663,2.8,15.056-1.135,1.752.313,4.881.577,6.443-.394a3.193,3.193,0,0,0,1.175-1.331,2.491,2.491,0,0,0,.116-2.256c-.4-.744-1.363-1.078-2.555-1.383a11.673,11.673,0,0,0-.707-3.134,3.1,3.1,0,0,0-2.208-1.955,29.784,29.784,0,0,1-7.54-2.951,2.113,2.113,0,0,0-2.623.423A95.341,95.341,0,0,1,6.333,59.576a4.053,4.053,0,0,0-1.279,1.683C.493,72.037-.839,87.667.489,103.212.97,108.832,5.3,125.185,9.51,128.88a5.37,5.37,0,0,0,1.639,1.008c2.967,1.107,7.119.931,10.075.959,11.56,3.564,20.073,1.18,29.169-6.216,6.478-5.272,12.645-11.287,22.228-6.826-5-.545-7.739.163-10.794,2.657a10.867,10.867,0,0,1,4.386,2.634c3.062,2.821,4.876,4.967,7.251,6.937,4.321,3.589,10.018,5.865,15.373,7.416a101.718,101.718,0,0,0,12.08,2.618c-12.629.362-22.845-1.913-30.073-7.634a8.387,8.387,0,0,0,.615,5.746,2.054,2.054,0,0,1,.088,1.7c-1.136,3.057-2.078,8.083.747,12.22a2.083,2.083,0,0,1,.165,2.118c-2.052,4.312-3.837,10.6-2.874,15.95-14.541.7-28.935,2-43.009,3.926a.21.21,0,0,0-.185.224.214.214,0,0,0,.213.2H161.557a.216.216,0,0,0,.213-.2A.211.211,0,0,0,161.586,174.092ZM81.96,169.734q-1.227.028-2.456.061a36.9,36.9,0,0,1,6.617-10.011A84.212,84.212,0,0,0,81.96,169.734Zm20.876-87.278c16.418,8.292,18.993,27.094,16.029,43.65,2.97,6.364,2.664,12.644.652,20.482.381-7.723-1.014-13.719-3.966-18.649C118.038,112.178,116.3,94.819,102.836,82.456Z" style="fill: rgb(0, 0, 0);"/></svg>